<svg id="f61e7f2c-3df8-44b9-b514-d2b672d0e0d5" data-name="Layer 1" xmlns="http://www.w3.org/2000/svg" width="1101" height="666.1" viewBox="0 0 1100.99998 666.0509"><title>dev_focus</title><circle cx="633.9" cy="214" r="36.4" fill="#2f2e41"/><path d="M 693.6 295.6 a 36.4 36.4 0 0 1 32 53.7 a 36.4 36.4 0 1 0 -60.5 -40 A 36.3 36.3 0 0 1 693.6 295.6 Z" transform="translate(-49.5,-117)" fill="#2f2e41"/><circle cx="565.9" cy="107" r="106.9" fill="#2f2e41"/><path d="M 531.5 157.7 A 106.9 106.9 0 0 1 679.7 146.5 c -0.9 -0.8 -1.7 -1.7 -2.6 -2.5 A 106.9 106.9 0 0 0 535 303.8 c 0.9 0.8 1.8 1.6 2.8 2.3 A 106.9 106.9 0 0 1 531.5 157.7 Z" transform="translate(-49.5,-117)" fill="#2f2e41"/><circle cx="565" cy="144.2" r="68.9" fill="#ffb8b8"/><path d="M 565.6 282.9 s 9.1 83.4 -5.4 92.4 s 83.4 21.7 83.4 21.7 s -14.5 -90.6 21.7 -114.2 Z" transform="translate(-49.5,-117)" fill="#ffb8b8"/><path d="M 652.6 360.8 s 27 -12.6 -11.9 -8.1 s -72.4 -12.7 -72.4 -12.7 s -11.8 -11.8 -13.6 0.9 s 5.4 36.2 -34.4 39.9 s -76.1 -7.2 -90.6 19.9 s -7.2 145 -7.2 145 s 27.2 97.9 48.9 112.3 s 212 -5.4 212 -5.4 L 737.7 554.7 V 440.5 s -7.2 -39.9 -58 -29 c 0 0 -32.6 -7.2 -30.8 -23.6 S 652.6 360.8 652.6 360.8 Z" transform="translate(-49.5,-117)" fill="#d0cde1"/><path d="M 478.6 727.2 c 1.1 -4.9 1.9 -7.6 1.9 -7.6 l -0.6 -4 l -6 -40.5 l -2.5 -17.1 c 21.7 -9.1 27.2 -50.7 27.2 -50.7 l 0.8 -0.5 l 3.7 -2.2 v 0 l 13.3 -8 l 0.3 -0.2 l 5.4 3.6 l 10.9 7.3 c 38.2 28.1 77.2 27.6 101.2 23.2 c 14.7 -2.7 23.8 -6.9 23.8 -6.9 l 26.4 -8.8 l 0.8 -0.3 l 0.8 0.1 l 15.5 2.3 l 0.3 0.1 l 1.3 0.2 l -3.6 24.8 l -5.2 36 c 13.7 7.3 25.9 20.9 36.6 37.7 q 3.5 5.6 6.9 11.6 c 2.9 5.2 5.6 10.6 8.3 16.1 c 0.3 0.7 0.6 1.3 0.9 2 c 1 2.2 2 4.4 3 6.6 H 473.8 c 0.4 -2.2 0.7 -4.3 1.1 -6.3 a 1.5 1.5 0 0 0 0 -0.2 c 0.1 -0.7 0.3 -1.3 0.4 -2 C 476.4 736.8 477.6 731.3 478.6 727.2 Z" transform="translate(-49.5,-117)" fill="#2f2e41"/><path d="M 467.7 378.9 s 19.9 36.2 12.7 81.5 S 502.2 618.1 502.2 618.1 l 21.7 -5.4 s -14.5 -94.2 -10.9 -116 s 3.6 -106.9 -14.5 -117.8 S 467.7 378.9 467.7 378.9 Z" transform="translate(-49.5,-117)" fill="#2f2e41"/><path d="M 678.5 416.6 l 7.6 200.6 l 14.5 9.1 s 20.8 -220.2 10 -220.2 H 688.4 A 10 10 0 0 0 678.5 416.6 Z" transform="translate(-49.5,-117)" fill="#2f2e41"/><circle cx="462.6" cy="487.6" r="9.1" fill="#6c63ff"/><circle cx="643.8" cy="496.6" r="9.1" fill="#6c63ff"/><polygon points="506.1,58.1 506.1,127 522.1,127 542.4,105.2 539.6,127 610.1,127 605.8,105.2 614.5,127 625.7,127 625.7,58.1 506.1,58.1" fill="#2f2e41"/><ellipse cx="495.2" cy="129.7" rx="5.4" ry="10" fill="#ffb8b8"/><ellipse cx="634.8" cy="129.7" rx="5.4" ry="10" fill="#ffb8b8"/><path d="M 721.4 612.7 s -82.4 -15.4 -87.9 11.8 s 91.5 15.4 91.5 15.4 Z" transform="translate(-49.5,-117)" fill="#ffb8b8"/><path d="M 719.6 426.1 S 917.1 583.7 880.9 621.8 S 706.9 648.9 706.9 648.9 l 9.1 -45.3 l 79.7 -9.1 L 755.9 554.7 l -36.2 3.6 Z" transform="translate(-49.5,-117)" fill="#d0cde1"/><path d="M 427.9 688.8 l 25.4 19.9 s 18.1 56.2 45.3 39.9 S 473.2 674.3 473.2 674.3 l -30.8 -10.9 Z" transform="translate(-49.5,-117)" fill="#ffb8b8"/><path d="M 453.2 397.1 l -25.3 7.6 s -175.8 130.1 -183.1 166.3 S 279.3 627.2 279.3 627.2 l 157.7 74.3 l 16.3 -43.5 l -74.3 -38.1 s 5.4 -10.9 -16.3 -12.7 S 337.3 581.9 337.3 581.9 s 43.5 -67 67 -52.6 s 30.8 25.4 30.8 25.4 Z" transform="translate(-49.5,-117)" fill="#d0cde1"/><path d="M 814.1 733.5 v 6.1 a 13.3 13.3 0 0 1 -0.9 4.9 a 13.7 13.7 0 0 1 -1 2 a 13.4 13.4 0 0 1 -11.6 6.6 H 354.1 a 13.4 13.4 0 0 1 -11.6 -6.6 a 13.7 13.7 0 0 1 -1 -2 a 13.3 13.3 0 0 1 -0.9 -4.9 v -6.1 a 13.4 13.4 0 0 1 13.4 -13.4 h 25.7 v -2.8 a 0.6 0.6 0 0 1 0.6 -0.6 h 13.4 a 0.6 0.6 0 0 1 0.6 0.6 v 2.8 h 8.4 v -2.8 a 0.6 0.6 0 0 1 0.6 -0.6 h 13.4 a 0.6 0.6 0 0 1 0.6 0.6 v 2.8 h 8.4 v -2.8 a 0.6 0.6 0 0 1 0.6 -0.6 h 13.4 a 0.6 0.6 0 0 1 0.6 0.6 v 2.8 h 8.4 v -2.8 a 0.6 0.6 0 0 1 0.6 -0.6 h 13.4 a 0.6 0.6 0 0 1 0.6 0.6 v 2.8 h 8.4 v -2.8 a 0.6 0.6 0 0 1 0.6 -0.6 h 13.4 a 0.6 0.6 0 0 1 0.6 0.6 v 2.8 h 8.4 v -2.8 a 0.6 0.6 0 0 1 0.6 -0.6 h 13.4 a 0.6 0.6 0 0 1 0.6 0.6 v 2.8 h 8.4 v -2.8 a 0.6 0.6 0 0 1 0.6 -0.6 h 105.2 a 0.6 0.6 0 0 1 0.6 0.6 v 2.8 h 8.4 v -2.8 a 0.6 0.6 0 0 1 0.6 -0.6 h 13.4 a 0.6 0.6 0 0 1 0.6 0.6 v 2.8 h 8.4 v -2.8 a 0.6 0.6 0 0 1 0.6 -0.6 h 13.4 a 0.6 0.6 0 0 1 0.6 0.6 v 2.8 h 8.4 v -2.8 a 0.6 0.6 0 0 1 0.6 -0.6 h 13.4 a 0.6 0.6 0 0 1 0.6 0.6 v 2.8 h 8.4 v -2.8 a 0.6 0.6 0 0 1 0.6 -0.6 h 13.4 a 0.6 0.6 0 0 1 0.6 0.6 v 2.8 h 8.4 v -2.8 a 0.6 0.6 0 0 1 0.6 -0.6 H 738 a 0.6 0.6 0 0 1 0.6 0.6 v 2.8 h 8.4 v -2.8 a 0.6 0.6 0 0 1 0.6 -0.6 h 13.4 a 0.6 0.6 0 0 1 0.6 0.6 v 2.8 h 39.2 A 13.4 13.4 0 0 1 814.1 733.5 Z" transform="translate(-49.5,-117)" fill="#3f3d56"/><rect x="161.4" y="627.4" width="733" height="2" fill="#3f3d56"/><path d="M 778.1 477.8 H 611.7 v -3.4 H 536.2 v 3.4 h -167.1 a 11.3 11.3 0 0 0 -11.3 11.3 v 227.9 A 11.3 11.3 0 0 0 369.1 728.3 H 778.1 a 11.3 11.3 0 0 0 11.3 -11.3 V 489.1 A 11.3 11.3 0 0 0 778.1 477.8 Z" transform="translate(-49.5,-117)" fill="#3f3d56"/><circle cx="524.4" cy="440.4" r="25" fill="none" stroke="#d0cde1" stroke-miterlimit="10" stroke-width="2"/><circle cx="516.4" cy="449.4" r="25" fill="#d0cde1"/><rect x="26" y="663.6" width="189" height="2.3" fill="#3f3d56"/><rect x="851" y="663.6" width="189" height="2.3" fill="#3f3d56"/><path d="M 185.6 707.7 c -19.9 32.5 -13.1 72.9 -13.1 72.9 s 39.1 -12.3 59 -44.8 s 13.1 -72.9 13.1 -72.9 S 205.6 675.2 185.6 707.7 Z" transform="translate(-49.5,-117)" fill="#3f3d56"/><path d="M 171.8 780.9 l -1.1 -0.2 c -0.4 -0.1 -41.2 -6.8 -65.6 -36 c -24.4 -29.2 -23.8 -70.5 -23.8 -70.9 l 0 -1.1 l 1.1 0.2 c 0.4 0.1 41.2 6.8 65.6 36 h 0 c 24.4 29.2 23.8 70.5 23.8 70.9 Z" transform="translate(-49.5,-117)" fill="#6c63ff"/><path d="M 173.4 781.9 l -1.1 -0.3 c -0.4 -0.1 -39.7 -12.8 -59.6 -45.2 c -19.9 -32.5 -13.3 -73.2 -13.2 -73.6 l 0.2 -1.1 l 1.1 0.3 c 0.4 0.1 39.7 12.8 59.6 45.2 h 0 c 19.9 32.5 13.3 73.2 13.2 73.6 Z m -72.1 -117.7 c -0.9 6.8 -4.5 42.3 13.1 71.1 c 17.6 28.7 50.9 41.7 57.4 44 c 0.9 -6.8 4.5 -42.3 -13.1 -71.1 h 0 C 141.1 679.5 107.8 666.6 101.3 664.3 Z" transform="translate(-49.5,-117)" fill="#3f3d56"/><circle cx="124.3" cy="536.3" r="22" fill="#3f3d56"/><polygon points="399.8,258.3 273.6,131.1 214,131.1 214,129.1 274.4,129.1 274.7,129.3 401.2,256.8 399.8,258.3" fill="#3f3d56"/><polygon points="696.2,254.3 822.4,127.1 882,127.1 882,125.1 821.6,125.1 821.3,125.3 694.8,252.8 696.2,254.3" fill="#3f3d56"/><rect x="0" y="68.3" width="146" height="28.9" fill="#d0cde1"/><rect x="0" y="112.7" width="146" height="28.9" fill="#d0cde1"/><rect x="0" y="157" width="146" height="28.9" fill="#d0cde1"/><rect x="0" y="68.3" width="60.4" height="28.9" opacity="0.15"/><rect y="112.7" width="19.6" height="28.9" opacity="0.15"/><rect x="0" y="157" width="97.3" height="28.9" opacity="0.15"/><rect x="954.8" y="74.8" width="146.2" height="13" fill="#d0cde1"/><rect x="900" y="73.1" width="29" height="29" fill="#6c63ff"/><rect x="900" y="116.6" width="29" height="29" fill="#6c63ff"/><rect x="900" y="160" width="29" height="29" fill="#6c63ff"/><path d="M 986.5 213.1 H 955.5 V 182.1 h 31 Z m -29 -2 h 27 V 184.1 H 957.5 Z" transform="translate(-49.5,-117)" fill="#3f3d56"/><rect x="954.8" y="118.3" width="146.2" height="13" fill="#d0cde1"/><path d="M 986.5 256.5 H 955.5 V 225.5 h 31 Z m -29 -2 h 27 V 227.5 H 957.5 Z" transform="translate(-49.5,-117)" fill="#3f3d56"/><rect x="954.8" y="161.7" width="146.2" height="13" fill="#d0cde1"/><path d="M 986.5 299.9 H 955.5 V 269 h 31 Z m -29 -2 h 27 V 271 H 957.5 Z" transform="translate(-49.5,-117)" fill="#3f3d56"/><circle cx="189" cy="83.1" r="16" fill="#6c63ff"/><circle cx="189" cy="131.1" r="16" fill="#6c63ff"/><circle cx="189" cy="174.1" r="16" fill="#6c63ff"/><path d="M 230.5 213 a 17 17 0 1 1 17 -17 A 17 17 0 0 1 230.5 213 Z m 0 -32 a 15 15 0 1 0 15 15 A 15 15 0 0 0 230.5 181 Z" transform="translate(-49.5,-117)" fill="#3f3d56"/><path d="M 230.5 261 a 17 17 0 1 1 17 -17 A 17 17 0 0 1 230.5 261 Z m 0 -32 a 15 15 0 1 0 15 15 A 15 15 0 0 0 230.5 229 Z" transform="translate(-49.5,-117)" fill="#3f3d56"/><path d="M 230.5 304 a 17 17 0 1 1 17 -17 A 17 17 0 0 1 230.5 304 Z m 0 -32 a 15 15 0 1 0 15 15 A 15 15 0 0 0 230.5 272 Z" transform="translate(-49.5,-117)" fill="#3f3d56"/><path d="M 1038.5 713 h -2 v -15 a 3 3 0 0 1 3 -3 h 5 a 1 1 0 0 0 1 -1 v -10 a 1 1 0 0 0 -1 -1 h -5 a 3 3 0 0 1 -3 -3 v -5 a 1 1 0 0 0 -1 -1 h -9 a 3 3 0 0 1 -3 -3 v -1 a 1 1 0 0 0 -1 -1 h -36 a 1 1 0 0 0 -1 1 v 1 a 3 3 0 0 1 -3 3 h -9 a 1 1 0 0 0 -1 1 v 5 a 3 3 0 0 1 -3 3 h -5 a 1 1 0 0 0 -1 1 v 10 a 1 1 0 0 0 1 1 h 6 a 3 3 0 0 1 3 3 v 15 h -2 v -15 a 1 1 0 0 0 -1 -1 h -6 a 3 3 0 0 1 -3 -3 v -10 a 3 3 0 0 1 3 -3 h 5 a 1 1 0 0 0 1 -1 v -5 a 3 3 0 0 1 3 -3 h 9 a 1 1 0 0 0 1 -1 v -1 a 3 3 0 0 1 3 -3 h 36 a 3 3 0 0 1 3 3 v 1 a 1 1 0 0 0 1 1 h 9 a 3 3 0 0 1 3 3 v 5 a 1 1 0 0 0 1 1 h 5 a 3 3 0 0 1 3 3 v 10 a 3 3 0 0 1 -3 3 h -5 a 1 1 0 0 0 -1 1 Z" transform="translate(-49.5,-117)" fill="#3f3d56"/><path d="M 1035.5 783 h -61 a 3 3 0 0 1 -3 -3 v -43 h 2 v 43 a 1 1 0 0 0 1 1 h 61 a 1 1 0 0 0 1 -1 v -43 h 2 v 43 A 3 3 0 0 1 1035.5 783 Z" transform="translate(-49.5,-117)" fill="#3f3d56"/><rect x="922" y="603.1" width="79" height="24" rx="2" fill="#6c63ff"/><path d="M 1042 738 H 967 a 3 3 0 0 1 -3 -3 v -20 a 3 3 0 0 1 3 -3 h 75 a 3 3 0 0 1 3 3 v 20 A 3 3 0 0 1 1042 738 Z m -75 -24 a 1 1 0 0 0 -1 1 v 20 a 1 1 0 0 0 1 1 h 75 a 1 1 0 0 0 1 -1 v -20 a 1 1 0 0 0 -1 -1 Z" transform="translate(-49.5,-117)" fill="#3f3d56"/><path d="M 1002.5 660 v 0 a 249.6 249.6 0 0 1 -2.1 -54.1 L 1002.5 576 h 0 c -11.5 23 -8.9 53.2 0 84 Z" transform="translate(-49.5,-117)" fill="#d0cde1"/><path d="M 1011.5 665 v 0 a 183.5 183.5 0 0 1 -1 -32.2 L 1011.5 615 h 0 c -5.6 13.7 -4.3 31.7 0 50 Z" transform="translate(-49.5,-117)" fill="#d0cde1"/></svg>