<svg id="e8c09660-db65-4061-a2dc-920e909a0453" data-name="Layer 1"
    xmlns="http://www.w3.org/2000/svg" width="1058" height="557" viewBox="0 0 1057.99365 557">
    <title>web_development</title>
    <path d="M 1000.1 420.1 L 900 467.5 l 88.6 -66.3 a 500.1 500.1 0 0 0 -48.4 -63.7 L 506 445.5 L 898.2 295.9 a 500 500 0 0 0 -57 -43.4 L 179.6 359 A 495.9 495.9 0 0 0 71 668.5 h 996 A 495.6 495.6 0 0 0 1000.1 420.1 Z" transform="matrix(1,0,0,1,-71,-171.5)" fill="#f2f2f2"/>
    <path d="M 787.1 221.7 A 496 496 0 0 0 569 171.5 c -153.8 0 -291.4 69.8 -382.7 179.3 C 342.7 316.6 615.1 257.2 787.1 221.7 Z" transform="translate(-71,-171.5)" fill="#f2f2f2"/>
    <path d="M 1067 666.5 c 0 15.5 -143.7 62 -321 62 s -321 -46.5 -321 -62 s 143.7 6 321 6 S 1067 651 1067 666.5 Z" transform="translate(-71,-171.5)" fill="#3f3d56"/>
    <path d="M 1067 666.5 c 0 15.5 -143.7 62 -321 62 s -321 -46.5 -321 -62 s 143.7 6 321 6 S 1067 651 1067 666.5 Z" transform="translate(-71,-171.5)" opacity="0.1"/>
    <ellipse cx="675" cy="495" rx="321" ry="28" fill="#3f3d56"/>
    <path d="M 656.6 438.6 s 12.9 20.5 8.3 26 s 34.6 5.7 34.6 5.7 s -5.9 -29.8 -4.2 -36.6 Z" transform="translate(-71,-171.5)" fill="#ffb8b8"/>
    <path d="M 656.6 438.6 s 12.9 20.5 8.3 26 s 34.6 5.7 34.6 5.7 s -5.9 -29.8 -4.2 -36.6 Z" transform="translate(-71,-171.5)" opacity="0.1"/>
    <circle cx="606.3" cy="234.1" r="40.5" fill="rgb(46, 46, 50)"/>
    <polygon points="701.5,453.5 701.5,477.5 725.5,472.5 723.5,455.5 701.5,453.5" fill="#ffb8b8"/>
    <path d="M 857.5 629 l 67 11 l -17 25 s -47 -16 -59 -16 S 857.5 629 857.5 629 Z" transform="translate(-71,-171.5)" fill="#ffb8b8"/>
    <path d="M 705.5 581 s 50 -58 66 -55 s 23 21 23 21 l 9 89 s -32 3 -32 0 s -6 -67 -6 -67 s -47 104 -72 35 Z" transform="translate(-71,-171.5)" fill="#2f2e41"/>
    <path d="M 624.5 620 s 1 50 31 53 s 63 -20 63 -20 l 54 -25.9 s 64 33.9 83 24.9 c 0 0 20 -21 7 -27 s -1 0 -1 0 l -77 -40 s -15 -4 -41 7 s -61 16 -61 16 Z" transform="translate(-71,-171.5)" fill="#2f2e41"/>
    <circle cx="603.5" cy="247.5" r="30" fill="#ffb8b8"/>
    <path d="M 717.5 503 l -2 42 s 1 55 -8 59 c -4.5 2 -13.7 6.1 -22.1 10.5 c -6.3 3.3 -12.3 6.8 -15.6 9.9 a 11.2 11.2 0 0 0 -2.3 2.6 c -4 7 -30 6 -36 1 s -2 6 -7 8 c -4.8 1.9 -11.6 -13.9 -7.4 -37.6 c 0.1 -0.8 0.3 -1.6 0.4 -2.4 c 4.6 -22.9 -2.6 -77.9 -1.5 -99.2 a 37.4 37.4 0 0 1 0.5 -4.8 c 3 -16 41.3 -48.6 48.4 -34.7 c 8.8 17.1 29.1 1.5 32.6 -6.3 c 20 -1 27 23 27 23 Z" transform="translate(-71,-171.5)" fill="#3f3d56"/>
    <path d="M 798.5 640 s -16 6 -21 5 s -10 3 -10 9 s -6 20 3 21 s 46 -1 54 2 c 0 0 36 1 33 -14 s -18 -14 -18 -14 S 798.5 647 798.5 640 Z" transform="translate(-71,-171.5)" fill="#2f2e41"/>
    <path d="M 915.5 643 s 2 -6 5 -6 s 27 4 30 3 s 38 -3 32 14 s -26 19 -26 19 s -36 -4 -41 -3 s -23 0 -20 -5 S 917.5 651 915.5 643 Z" transform="translate(-71,-171.5)" fill="#2f2e41"/>
    <path d="M 824.5 499.4 l 5.5 22.6 a 1.4 1.4 0 0 1 0 0.8 l -24.9 77.8 a 1.4 1.4 0 0 1 -2.8 -0.3 l -3.4 -30.3 a 1.4 1.4 0 0 1 0.1 -0.6 l 22.8 -70.1 A 1.4 1.4 0 0 1 824.5 499.4 Z" transform="translate(-71,-171.5)" fill="#d0cde1"/>
    <polygon points="751.5,329.8 756.5,349.2 734.6,420.1 729.5,398.2 751.5,329.8" fill="#f2f2f2"/>
    <path d="M 711.9 606.8 c 0.8 2.5 87.8 -0.8 88.6 -1.7 a 18.3 18.3 0 0 0 1.9 -3.4 c 0.8 -1.7 1.5 -3.4 1.5 -3.4 l -3.4 -27.3 l -86.1 -3.1 s -2.2 23.2 -2.6 33.8 A 25.3 25.3 0 0 0 711.9 606.8 Z" transform="translate(-71,-171.5)" fill="#d0cde1"/>
    <polygon points="718.5,403.2 720.2,426.9 682.2,426.9 682.2,403.2 718.5,403.2" opacity="0.1"/>
    <polygon points="669.6,410.8 669.8,410.8 668.7,420.9 647.6,420.9 647.6,410.8 669.6,410.8" opacity="0.1"/>
    <path d="M 711.9 606.8 c 0.8 2.5 87.8 -0.8 88.6 -1.7 a 18.3 18.3 0 0 0 1.9 -3.4 H 711.8 A 25.3 25.3 0 0 0 711.9 606.8 Z" transform="translate(-71,-171.5)" opacity="0.1"/>
    <path d="M 698.4 333.5 a 22.1 22.1 0 0 1 -12.8 8.8 c -8.9 2.4 -0.1 15.8 -0.1 15.8 s -3.2 -4.9 1.4 -10 S 699.1 339.3 698.4 333.5 Z" transform="translate(-71,-171.5)" fill="#2f2e41"/>
    <circle cx="613" cy="189.8" r="11.3" fill="#2f2e41"/>
    <path d="M 698.4 370.8 c -9.2 -3.5 -24.5 -5.2 -32.4 -4 l 1.1 -7.9 c 7.6 3.9 22.8 5.8 32.4 4 Z" transform="matrix(1,0,0,1,-71,-171.5)" fill="#3f3d56"/>
    <path d="M 680.6 373.6 s -11.5 19.2 -38.3 26.4 s -0.2 47.5 -0.2 47.5 s -9.7 -14.6 4.3 -30.2 S 682.7 391.1 680.6 373.6 Z" transform="matrix(1,0,0,1,-71,-171.5)" fill="#2f2e41"/>
    <path d="M 681.5 372.4 s 11.1 26.3 23.2 28.8 s 11.2 44.1 -7.8 50.3 c 0 0 13.9 -24.4 2 -40.8 S 679.6 381.5 681.5 372.4 Z" transform="translate(-71,-171.5)" fill="#2f2e41"/>
    <path d="M 685.4 614.5 c -2.5 4.7 -5.4 9.5 -5.9 11.5 c -0.3 1.3 -4 0.6 -9.8 -1.6 c -11.6 -4.4 -31.6 -14.4 -50.3 -24.4 a 15.8 15.8 0 0 1 -2.4 -1.6 c 0.1 -0.8 0.3 -1.6 0.4 -2.4 c 4.6 -22.9 -2.6 -77.9 -1.5 -99.2 l 8.5 -2.8 l 17 16 v 68 s 44 24 47 26 C 690 605 687.9 609.7 685.4 614.5 Z" transform="translate(-71,-171.5)" opacity="0.1"/>
    <path d="M 722.5 560 l 27 14 s 16 -17 26 -4 s -29 17 -29 17 s -34 -8 -35 -19 S 722.5 560 722.5 560 Z" transform="translate(-71,-171.5)" fill="#ffb8b8"/>
    <path d="M 677.5 597 l 16 4 s 18 -22 37 -14 s -24 24 -24 24 s -23 12 -32 2 S 677.5 597 677.5 597 Z" transform="translate(-71,-171.5)" fill="#ffb8b8"/>
    <path d="M 712.5 465 c 1 1 12 9 12 9 s 3 38 -1 46 s -7 8 -4 12 s 7 1 3 8 s -8 6 -5 9 s 2 4 2 4 l 12 10 s -7.4 11.7 -16.7 10.9 S 697.5 528 697.5 528 Z" transform="translate(-71,-171.5)" fill="#3f3d56"/>
    <path d="M 624.5 489 l -9 3 s -24 88 4 103 s 59 30 60 26 s 12 -20 9 -22 s -47 -26 -47 -26 V 505 Z" transform="translate(-71,-171.5)" fill="#3f3d56"/>
    <polygon points="567,354 565,402 618,427 569,402 567,354" opacity="0.1"/>
    <path d="M 1084.1 633.1 c -20.2 11.9 -28.1 35.8 -28.1 35.8 s 24.7 4.6 44.9 -7.3 s 28.1 -35.8 28.1 -35.8 S 1104.3 621.3 1084.1 633.1 Z" transform="translate(-71,-171.5)" fill="#3f3d56"/>
    <path d="M 1091.2 640.5 c -11.3 20.5 -34.9 29.1 -34.9 29.1 s -5.3 -24.6 5.9 -45.1 s 34.9 -29.1 34.9 -29.1 S 1102.4 620 1091.2 640.5 Z" transform="translate(-71,-171.5)" fill="#6c63ff"/>
    <circle cx="22" cy="228" r="4" fill="#6c63ff"/>
    <circle cx="33" cy="228" r="4" fill="#6c63ff"/>
    <circle cx="44" cy="228" r="4" fill="#6c63ff"/>
    <rect x="79" y="378.9" width="58" height="6" fill="#6c63ff" opacity="0.3"/>
    <rect x="79" y="391.9" width="54.9" height="6" fill="#6c63ff" opacity="0.3"/>
    <rect x="79" y="404.9" width="40" height="6" fill="#6c63ff" opacity="0.3"/>
    <g opacity="0.3">
        <rect x="214" y="378.9" width="58" height="6" fill="#6c63ff"/>
        <rect x="214" y="391.9" width="54.9" height="6" fill="#6c63ff"/>
        <rect x="214" y="404.9" width="40" height="6" fill="#6c63ff"/>
        <rect x="214" y="378.9" width="58" height="6" fill="#6c63ff" opacity="0.3"/>
        <rect x="214" y="391.9" width="54.9" height="6" fill="#6c63ff" opacity="0.3"/>
        <rect x="214" y="404.9" width="40" height="6" fill="#6c63ff" opacity="0.3"/>
    </g>
    <rect x="354" y="378.9" width="58" height="6" fill="#6c63ff" opacity="0.3"/>
    <rect x="354" y="391.9" width="54.9" height="6" fill="#6c63ff" opacity="0.3"/>
    <rect x="354" y="404.9" width="40" height="6" fill="#6c63ff" opacity="0.3"/>
    <rect x="71" y="300.9" width="74" height="66" fill="#6c63ff" opacity="0.3"/>
    <rect x="206" y="300.9" width="74" height="66" fill="#3f3d56"/>
    <rect x="346" y="300.9" width="74" height="66" fill="#3f3d56"/>
    <path d="M 304.4 538.1 l -1 0 c 0 -1.1 0.6 -26.6 10.7 -33.6 l 0.6 0.8 C 305 512 304.4 537.8 304.4 538.1 Z" transform="translate(-71,-171.5)" fill="#6c63ff"/>
    <circle cx="248.2" cy="327.8" r="4.9" fill="#6c63ff"/>
    <path d="M 318.2 516.5 a 15.2 15.2 0 0 1 -7.8 0.3 a 13.9 13.9 0 0 1 14.2 -4.9 A 15.2 15.2 0 0 1 318.2 516.5 Z" transform="translate(-71,-171.5)" fill="#6c63ff"/>
    <path d="M 444.4 538.1 l -1 0 c 0 -1.1 0.6 -26.6 10.7 -33.6 l 0.6 0.8 C 445 512 444.4 537.8 444.4 538.1 Z" transform="translate(-71,-171.5)" fill="#6c63ff"/>
    <circle cx="388.2" cy="327.8" r="4.9" fill="#6c63ff"/>
    <path d="M 458.2 516.5 a 15.2 15.2 0 0 1 -7.8 0.3 a 13.9 13.9 0 0 1 14.2 -4.9 A 15.2 15.2 0 0 1 458.2 516.5 Z" transform="translate(-71,-171.5)" fill="#6c63ff"/>
    <path d="M 556 665.5 h -479 v -277 h 479 Z m -477 -2 h 475 v -273 h -475 Z" transform="translate(-71,-171.5)" fill="#2f2e41"/>
    <rect x="7" y="237.1" width="477" height="2" fill="#2f2e41"/>
</svg>